<svg xmlns="http://www.w3.org/2000/svg" width="1024" height="1024" viewBox="0 0 1024 1024">
  <defs>
    <filter id="shadow" x="-30%" y="-30%" width="160%" height="180%">
      <feDropShadow dx="0" dy="34" stdDeviation="34" flood-color="#2f2119" flood-opacity="0.34"/>
    </filter>
    <linearGradient id="background" x1="160" y1="110" x2="850" y2="920" gradientUnits="userSpaceOnUse">
      <stop stop-color="#9a765f"/>
      <stop offset="1" stop-color="#624737"/>
    </linearGradient>
    <linearGradient id="top" x1="334" y1="280" x2="666" y2="520" gradientUnits="userSpaceOnUse">
      <stop stop-color="#fff2ce"/>
      <stop offset="1" stop-color="#e4c58f"/>
    </linearGradient>
    <linearGradient id="left" x1="278" y1="416" x2="512" y2="786" gradientUnits="userSpaceOnUse">
      <stop stop-color="#c79c6a"/>
      <stop offset="1" stop-color="#9e704c"/>
    </linearGradient>
    <linearGradient id="right" x1="512" y1="438" x2="748" y2="770" gradientUnits="userSpaceOnUse">
      <stop stop-color="#b98658"/>
      <stop offset="1" stop-color="#7f563d"/>
    </linearGradient>
  </defs>
  <rect x="76" y="76" width="872" height="872" rx="204" fill="url(#background)"/>
  <g filter="url(#shadow)" stroke="#4b3326" stroke-width="18" stroke-linejoin="round">
    <path d="M512 238 760 378 512 518 264 378Z" fill="url(#top)"/>
    <path d="M264 378 512 518V806L264 666Z" fill="url(#left)"/>
    <path d="M512 518 760 378V666L512 806Z" fill="url(#right)"/>
  </g>
  <g fill="#8c6041">
    <circle cx="414" cy="348" r="18"/>
    <circle cx="554" cy="320" r="13"/>
    <circle cx="620" cy="402" r="20"/>
    <circle cx="492" cy="432" r="11"/>
  </g>
  <g fill="#f5dba8">
    <circle cx="354" cy="530" r="16"/>
    <circle cx="428" cy="650" r="20"/>
    <circle cx="346" cy="686" r="11"/>
    <circle cx="580" cy="594" r="15"/>
    <circle cx="680" cy="522" r="20"/>
    <circle cx="624" cy="700" r="12"/>
  </g>
</svg>
